<svg xmlns="http://www.w3.org/2000/svg" xmlns:xlink="http://www.w3.org/1999/xlink" viewBox="0 0 495.16 430.88"><defs><style>.cls-1{fill:url(#linear-gradient);}.cls-2{opacity:0.1;}.cls-3,.cls-4{fill:#fff;}.cls-4{stroke:#4292f1;stroke-miterlimit:10;}.cls-5{fill:#4292f1;}</style><linearGradient id="linear-gradient" x1="100.1" y1="83.88" x2="342.97" y2="297.92" gradientUnits="userSpaceOnUse"><stop offset="0" stop-color="#56dfc5"/><stop offset="1" stop-color="#469dea"/></linearGradient></defs><title>Asset 2</title><g id="Layer_2" data-name="Layer 2"><g id="Layer_1-2" data-name="Layer 1"><rect class="cls-1" x="88.58" y="55.92" width="300" height="300"/><image width="966" height="779" transform="translate(202.16 199.42) scale(0.19)" xlink:href="../../../Untitled-1.png"/><g id="_Group_" data-name="&lt;Group&gt;" class="cls-2"><polygon id="_Path_" data-name="&lt;Path&gt;" class="cls-3" points="67.02 193.2 32.8 165.95 73.51 149.94 67.02 193.2"/><rect id="_Path_2" data-name="&lt;Path&gt;" class="cls-3" x="164.36" y="172" width="42.5" height="42.5"/><rect id="_Path_3" data-name="&lt;Path&gt;" class="cls-3" x="52.56" y="276.4" width="42.5" height="42.5" transform="translate(-167.92 108.95) rotate(-38.1)"/><rect id="_Path_4" data-name="&lt;Path&gt;" class="cls-3" x="275.23" y="381.73" width="42.5" height="42.5" transform="translate(-190.68 516.88) rotate(-66.82)"/><polygon id="_Path_5" data-name="&lt;Path&gt;" class="cls-3" points="354.42 315.21 344.97 286.08 369.7 268.09 394.43 286.1 384.98 315.21 354.42 315.21"/><polygon id="_Path_6" data-name="&lt;Path&gt;" class="cls-3" points="487.66 188.36 472.65 185.33 470.88 170.14 484.8 163.79 495.16 175.05 487.66 188.36"/><polygon id="_Path_7" data-name="&lt;Path&gt;" class="cls-3" points="299.51 189.55 284.5 163.68 299.51 137.81 329.52 137.81 344.53 163.68 329.52 189.55 299.51 189.55"/><polygon id="_Path_8" data-name="&lt;Path&gt;" class="cls-3" points="146.2 23.74 132.55 29.85 120.47 21.03 122.04 6.11 135.69 0 147.77 8.82 146.2 23.74"/></g><rect id="_Rectangle_" data-name="&lt;Rectangle&gt;" class="cls-4" x="0.5" y="82.02" width="65.68" height="65.68" rx="12" ry="12"/><rect id="_Rectangle_2" data-name="&lt;Rectangle&gt;" class="cls-4" x="75.29" y="82.02" width="65.68" height="65.68" rx="12" ry="12"/><rect id="_Rectangle_3" data-name="&lt;Rectangle&gt;" class="cls-4" x="149.48" y="82.02" width="65.68" height="65.68" rx="12" ry="12"/><rect id="_Rectangle_4" data-name="&lt;Rectangle&gt;" class="cls-4" x="40.18" y="167.03" width="65.68" height="65.68" rx="12" ry="12"/><rect id="_Rectangle_5" data-name="&lt;Rectangle&gt;" class="cls-4" x="115.76" y="167.03" width="65.68" height="65.68" rx="12" ry="12"/><g id="_Group_2" data-name="&lt;Group&gt;"><path id="_Compound_Path_" data-name="&lt;Compound Path&gt;" class="cls-5" d="M21.81,121.56v-1.15a3.44,3.44,0,0,1,1.11.17,4.17,4.17,0,0,1,1.64,1.07,2.8,2.8,0,0,0,1.54.86,2.27,2.27,0,0,0,2-.6,5.93,5.93,0,0,1,1.29-1.06.25.25,0,0,0,.08-.17v-2a.26.26,0,0,0-.09-.18c-.16-.17-.34-.33-.51-.48a7.48,7.48,0,0,1-.76.48,3.51,3.51,0,0,1-4-.55c-.2-.16-.38-.34-.57-.51a2.47,2.47,0,0,0-1.54-.68l-.15,0v-1.14a3.28,3.28,0,0,1,1.86.53,5.73,5.73,0,0,1,.87.69,2.76,2.76,0,0,0,1.85.91,2.26,2.26,0,0,0,1.68-.6,16.45,16.45,0,0,1-.67-1.69,6.49,6.49,0,0,1-.24-1.63c0-1.52,0-3,0-4.55a1.64,1.64,0,0,1,.35-1.11,1.34,1.34,0,0,1,1.61-.29l.33.17c0-.09,0-.16,0-.23,0-1.27,0-2.53,0-3.8a1.75,1.75,0,0,1,2.41-1.73,1.74,1.74,0,0,1,3.21,0,1.72,1.72,0,0,1,1.9.37,2.19,2.19,0,0,1,.5,1.87,5,5,0,0,1,.95,0,1.69,1.69,0,0,1,1.35,1.67c0,.7,0,1.4,0,2.1v4.81a6.71,6.71,0,0,1-.3,2.59c.32,0,.62-.08.92-.09a3.65,3.65,0,0,1,2.73,1.13,2.86,2.86,0,0,0,1.22.87c.25.07.51.11.78.17v1.11a3,3,0,0,1-1.27-.22,3.33,3.33,0,0,1-1.3-.86,3,3,0,0,0-1.23-.89,2.45,2.45,0,0,0-2.63.58l-.92.9a.35.35,0,0,0-.1.21v2.95a.45.45,0,0,0,0,.08l.12-.11a3.66,3.66,0,0,1,5.34,0,3,3,0,0,0,1.09.81c.28.09.57.14.87.21v1.12a3.49,3.49,0,0,1-2.25-.81c-.21-.19-.41-.39-.61-.59a2.5,2.5,0,0,0-3.5-.06c-.22.2-.42.42-.64.61a3.59,3.59,0,0,1-4.64,0c-.19-.17-.38-.36-.57-.55a2.5,2.5,0,0,0-3.53,0,6.41,6.41,0,0,1-1.05.9,3.5,3.5,0,0,1-4.12-.32,6,6,0,0,1-.46-.4A2.62,2.62,0,0,0,21.81,121.56Zm14.5-10.75v-.28c0-2.18,0-4.37,0-6.56a.61.61,0,0,0-.18-.5.53.53,0,0,0-.6-.11.55.55,0,0,0-.34.56v6H34v-6.75a1.13,1.13,0,0,0,0-.26.56.56,0,0,0-.56-.48.57.57,0,0,0-.56.52v7H31.73v-.25c0-1.9,0-3.8,0-5.7a.57.57,0,0,0-.55-.61.56.56,0,0,0-.56.62q0,4,0,8a.19.19,0,0,0,.18.22,3.53,3.53,0,0,1,2.68,2.46,2.46,2.46,0,0,1,.15,1.05H32.48a1,1,0,0,1,0-.17,2.45,2.45,0,0,0-2.39-2.27.57.57,0,0,1-.62-.65v-2.08a1.71,1.71,0,0,0-.61-1.45,1.4,1.4,0,0,0-.42-.15,1.38,1.38,0,0,0-.1.4q0,2.25,0,4.5a5.3,5.3,0,0,0,.12,1.06,5.1,5.1,0,0,0,3.11,3.62l.54.23-.44,1.07-1-.43v1.08h.2a3.27,3.27,0,0,1,2.14.49,8.53,8.53,0,0,1,1.08.91,2.46,2.46,0,0,0,2.42.62v-3.12l-1,.47-.44-1a10.91,10.91,0,0,0,1.4-.75,4.78,4.78,0,0,0,2.19-4.12q0-3.75,0-7.49a2,2,0,0,0,0-.25A.56.56,0,0,0,37.5,106a1.31,1.31,0,0,0,0,.34c0,1.39,0,2.79,0,4.18v.25Z"/><path id="_Path_9" data-name="&lt;Path&gt;" class="cls-5" d="M21.81,126.34v-1.13a3.42,3.42,0,0,1,1.38.26,4.55,4.55,0,0,1,1.42,1,2.72,2.72,0,0,0,1.59.84,2.35,2.35,0,0,0,1.85-.57,11.17,11.17,0,0,1,1.11-1,3.62,3.62,0,0,1,4.61.56,2.89,2.89,0,0,0,1.44.93,2.4,2.4,0,0,0,2.36-.7,4.22,4.22,0,0,1,1.39-1,3.66,3.66,0,0,1,4,.68,1.47,1.47,0,0,1,.22.21,2.52,2.52,0,0,0,1.91.93v1.15a3.08,3.08,0,0,1-1.66-.41,7.26,7.26,0,0,1-1.07-.85,2.82,2.82,0,0,0-1.37-.81,2.56,2.56,0,0,0-2.43.77,5.41,5.41,0,0,1-1,.86,3.56,3.56,0,0,1-4.29-.62,6.2,6.2,0,0,0-.45-.44,2.48,2.48,0,0,0-3.45.13,4.43,4.43,0,0,1-1.4,1.07,3.54,3.54,0,0,1-3.87-.64c-.17-.14-.32-.29-.48-.44a2.47,2.47,0,0,0-1.61-.74Z"/></g><path id="_Compound_Path_2" data-name="&lt;Compound Path&gt;" class="cls-5" d="M113.53,111.3h4a2.69,2.69,0,0,1,2.5,3.82.34.34,0,0,0,0,.26,2.37,2.37,0,0,1-.37,2.7.27.27,0,0,0-.09.29,2.77,2.77,0,0,1-.75,2.49.48.48,0,0,0-.1.28,2.84,2.84,0,0,1-1.68,2.59,1.76,1.76,0,0,1-.6.1c-3,0-6.06,0-9.08,0a5,5,0,0,1-.79-.15l-.09.14a1.45,1.45,0,0,1-1.25.71c-1.9,0-3.79,0-5.68,0A1.53,1.53,0,0,1,98,123.09a1.48,1.48,0,0,1,0-.21V112.4a1.57,1.57,0,0,1,1.19-1.63,3.71,3.71,0,0,1,.48,0c1.72,0,3.45,0,5.17,0a1.69,1.69,0,0,1,1.81,1.12c.36-.43.68-.86,1.06-1.24a5.31,5.31,0,0,0,1.25-2.84,6.07,6.07,0,0,1,.47-1.42,1.91,1.91,0,0,1,3.27-.42,4.35,4.35,0,0,1,1,2.2,6.7,6.7,0,0,1-.15,3A.9.9,0,0,0,113.53,111.3Zm-1.62,11h4.39a.64.64,0,0,0,.34-.09,1.44,1.44,0,0,0,.5-.79.44.44,0,0,0-.08-.41.74.74,0,0,1,.47-1.2.42.42,0,0,0,.36-.28,3.69,3.69,0,0,0,.18-.65.48.48,0,0,0-.22-.47.76.76,0,0,1,.45-1.36c.25,0,.34-.1.41-.36s0-.52-.15-.63a.76.76,0,0,1-.19-1.24,1.15,1.15,0,0,0,.23-1.31,1.17,1.17,0,0,0-1.17-.69c-1.64,0-3.29,0-4.94,0a1.13,1.13,0,0,1-.48-.11.75.75,0,0,1-.28-1,5.59,5.59,0,0,0,.55-2.63,3.49,3.49,0,0,0-.6-2c-.14-.18-.3-.37-.55-.34s-.36.26-.43.48a8.58,8.58,0,0,0-.34,1.3,5.68,5.68,0,0,1-1.42,3l-2.13,2.41a.38.38,0,0,0-.11.24v7.72c0,.06,0,.15.06.16a2.11,2.11,0,0,0,.76.27C109,122.32,110.45,122.31,111.91,122.31Zm-6.75.68V112.28h-5.6V123Z"/><g id="_Group_3" data-name="&lt;Group&gt;"><path id="_Compound_Path_3" data-name="&lt;Compound Path&gt;" class="cls-5" d="M177.37,113.63a6,6,0,0,0,.08,1,4.72,4.72,0,0,0,2.16,3.16,4.83,4.83,0,0,0,2.56.75,4.75,4.75,0,0,0,1.24-.17,4.8,4.8,0,0,0,3.56-4.71v-6.78a4.52,4.52,0,0,0-.09-.93,4.76,4.76,0,0,0-2.36-3.32,4.8,4.8,0,0,0-7.15,4c0,.83,0,1.67,0,2.51v2.06C177.36,112,177.36,112.81,177.37,113.63Zm2.46.25a.78.78,0,0,0,.65-.32.75.75,0,0,0,.11-.67.88.88,0,0,0-.75-.66c-.26,0-.51-.14-.77-.14h-.35V110.9h.33c.25,0,.5.06.74.06a.79.79,0,0,0,.78-.46.76.76,0,0,0-.07-.69.76.76,0,0,0-.61-.34c-.22,0-.53,0-.75,0h-.42v-1.35h1.06a.8.8,0,0,0,.82-.78,1,1,0,0,0-.8-1c-.25,0-.49-.22-.75-.22h-.15a2.66,2.66,0,0,1,1.45-2.3,3.08,3.08,0,0,1,3.43-.23,3,3,0,0,1,1.65,2.53h-.65c-.11,0-.23.22-.34.22a.86.86,0,0,0-.73.83.7.7,0,0,0,.64.75,3.71,3.71,0,0,0,.58,0h.23c.08,0,.1.2.1.2v1h-.36c-.13,0-.27.18-.41.18a.84.84,0,0,0-.78.82.79.79,0,0,0,.75.84c.22,0,.36,0,.58,0l.22,0v1.08h-.35c-.14,0-.28.13-.42.14a.81.81,0,0,0-.78.8.77.77,0,0,0,.75.82c.21,0,.43,0,.65,0h.31a2.89,2.89,0,0,1-1.29,2.41,3.08,3.08,0,0,1-3.53.25,3.19,3.19,0,0,1-1.7-2.66h.16C179.32,113.88,179.57,113.89,179.83,113.88Z"/><path id="_Path_10" data-name="&lt;Path&gt;" class="cls-5" d="M191.36,112.45c-.14-.14-.33-.36-.54-.36h0a.89.89,0,0,0-.76.93,9.26,9.26,0,0,1-.24,1.94,7.83,7.83,0,0,1-8.86,5.9,7.85,7.85,0,0,1-6.67-7.7.84.84,0,0,0-.24-.6.77.77,0,0,0-1.29.62c0,.3,0,.65.06,1a9.26,9.26,0,0,0,2.87,5.75,9.16,9.16,0,0,0,4.57,2.39c.29.06.44.11.74.15.09,0,.11,0,.11,0v3.26h-4.57c-.07,0-.13.21-.2.22a.85.85,0,0,0-.69.8.8.8,0,0,0,.57.85,1.12,1.12,0,0,0,.33,0c1.88,0,3.75-.06,5.62-.06h5.62c.1,0,.23.09.36,0a.68.68,0,0,0,.5-.4,1.22,1.22,0,0,0-.06-.88c-.16-.24-.4-.55-.73-.55h-5V122.5a.81.81,0,0,1,.2,0c.24,0,.5-.06.74-.11a9.31,9.31,0,0,0,5.48-3.15,9.49,9.49,0,0,0,2.27-6.1A1,1,0,0,0,191.36,112.45Z"/></g><path id="_Compound_Path_4" data-name="&lt;Compound Path&gt;" class="cls-5" d="M62.54,192.36a3.64,3.64,0,1,1,6.63-2.89,3.54,3.54,0,0,1-.28,2.74.17.17,0,0,0,0,.26c.2.17.39.36.58.55a.22.22,0,0,0,.28.07,9.17,9.17,0,0,1,6.82,0c.14,0,.22,0,.32-.07a7,7,0,0,1,.56-.53.14.14,0,0,0,0-.2,3.54,3.54,0,0,1,.31-4,3.49,3.49,0,0,1,3.06-1.42,3.64,3.64,0,0,1,3,5.37l-.07.12a8.71,8.71,0,0,1,3.22,7.18H82.2c0,.3.11.57.16.85a8.84,8.84,0,0,1-.59,4.77A9.05,9.05,0,0,1,79,208.9c-.13.1-.13.17-.07.31a8.47,8.47,0,0,1,.64,3.59s0,0,0,.09H66.84c0-.25,0-.49,0-.73a7.71,7.71,0,0,1,.64-3,.21.21,0,0,0-.07-.29,9.34,9.34,0,0,1-3.31-5.52,8.6,8.6,0,0,1,.08-3.71s0-.08,0-.14H59.32a8.23,8.23,0,0,1,.75-4A9.63,9.63,0,0,1,62.54,192.36Zm7.52,13.38a3.65,3.65,0,0,1,5.24-4.85,3.58,3.58,0,0,1,1.4,2,3.66,3.66,0,0,1-.36,2.87,10.18,10.18,0,0,1,2,2.25l.17-.13a8.16,8.16,0,0,0,2.27-3.2,7.84,7.84,0,0,0,.31-5c0-.12-.09-.15-.21-.15H74.37A8.19,8.19,0,0,1,76,194.07a7.91,7.91,0,0,0-5.59,0,8.69,8.69,0,0,1,1.29,2.56,8.84,8.84,0,0,1,.33,2.85H65.58c-.13,0-.19,0-.22.16a7.74,7.74,0,0,0-.26,2,8.18,8.18,0,0,0,1.61,4.81,7.73,7.73,0,0,0,1.4,1.46A9.58,9.58,0,0,1,70.06,205.74Zm5.54.88a3.7,3.7,0,0,1-4.8,0,7.79,7.79,0,0,0-2.79,5.1H78.39A7.84,7.84,0,0,0,75.6,206.62Zm-.06-8.26H85.91a7.77,7.77,0,0,0-2.79-5.11,3.69,3.69,0,0,1-4.8,0A7.78,7.78,0,0,0,75.54,198.36Zm-12.26-5.11a7.77,7.77,0,0,0-2.79,5.1H70.85a7.68,7.68,0,0,0-2.79-5.09A3.68,3.68,0,0,1,63.28,193.25ZM80.73,188a2.49,2.49,0,1,0,2.48,2.51A2.47,2.47,0,0,0,80.73,188Zm-15,0a2.49,2.49,0,1,0,2.48,2.51A2.46,2.46,0,0,0,65.68,188Zm7.52,13.37a2.49,2.49,0,1,0,2.49,2.49A2.47,2.47,0,0,0,73.2,201.38Z"/><g id="_Group_4" data-name="&lt;Group&gt;"><path id="_Compound_Path_5" data-name="&lt;Compound Path&gt;" class="cls-5" d="M155.34,189.64c.27-.11.53-.24.8-.32a2.79,2.79,0,0,1,3.24,1.4,4,4,0,0,1,.37,2.67,7,7,0,0,1-1.46,3,11.34,11.34,0,0,1-3.62,3.09c-.26.13-.55.22-.83.33a.64.64,0,0,0-.16.11,7.12,7.12,0,0,1-3,2.14.2.2,0,0,0-.09.13c0,.79,0,1.58,0,2.38a.39.39,0,0,0,0,.06h2.07a.68.68,0,0,1,.78.6l1.41,5.38a1.06,1.06,0,0,1,0,.43.63.63,0,0,1-.67.52H142.11a.64.64,0,0,1-.67-.86c.48-1.86,1-3.71,1.46-5.57a.64.64,0,0,1,.66-.5h2.17c0-.06,0-.1,0-.15v-2.25a.16.16,0,0,0-.12-.18,7.1,7.1,0,0,1-2.93-2.08.65.65,0,0,0-.26-.17,6.55,6.55,0,0,1-1.78-.92,11.71,11.71,0,0,1-3.19-3.24,6.25,6.25,0,0,1-1-2.46,3.65,3.65,0,0,1,.7-2.94,2.8,2.8,0,0,1,3.65-.65l.15.08v-.35c0-.18,0-.36,0-.54a.65.65,0,0,1,.67-.66h13a.66.66,0,0,1,.73.73C155.35,189.14,155.34,189.39,155.34,189.64Zm-13,6.36c0,.09,0,.15,0,.21a5.72,5.72,0,0,0,1.77,3.41,5.65,5.65,0,0,0,5.26,1.49,5.83,5.83,0,0,0,4.65-5.78v-5.87H142.3V192h2.46a.64.64,0,0,1,.6.31.64.64,0,0,1-.57,1H142.3v1.43h1.46a.62.62,0,0,1,.62.44.65.65,0,0,1-.6.86ZM144,206l-1.14,4.31h10.53L152.29,206Zm-2.65-8.09,0,0s0-.06,0-.09a6.69,6.69,0,0,1-.4-2.12c0-.86,0-1.71,0-2.57a8.57,8.57,0,0,0-.05-1.24,1.56,1.56,0,0,0-2.48-1,2,2,0,0,0-.72,1.6,4,4,0,0,0,.46,1.89,8.52,8.52,0,0,0,2,2.53C140.56,197.21,141,197.53,141.39,197.87Zm13.53,0,.09-.06a10.68,10.68,0,0,0,2.09-1.94,6.09,6.09,0,0,0,1.35-2.62,2.64,2.64,0,0,0-.23-1.89,1.47,1.47,0,0,0-1.71-.75,1.58,1.58,0,0,0-1.18,1.53c0,1.1,0,2.19,0,3.29a10.27,10.27,0,0,1-.14,1.36C155.13,197.11,155,197.46,154.92,197.83Zm-7.87,6.82h2.22v-2.19a7.19,7.19,0,0,1-2.22,0Z"/><path id="_Path_11" data-name="&lt;Path&gt;" class="cls-5" d="M151.54,193v2a.64.64,0,0,1-.36.59.65.65,0,0,1-.94-.59v-4a.63.63,0,0,1,.65-.66.65.65,0,0,1,.65.65Z"/></g></g></g></svg>