<svg id="Layer_1" data-name="Layer 1" xmlns="http://www.w3.org/2000/svg" viewBox="0 0 400 400"><defs><style>.cls-1{fill:#9fc6ff;}.cls-2,.cls-5,.cls-6{fill:none;}.cls-2,.cls-3,.cls-4,.cls-5,.cls-6{stroke:#005cff;stroke-linecap:round;stroke-linejoin:round;}.cls-2{stroke-width:4px;}.cls-3,.cls-4{fill:#fff;}.cls-4{stroke-width:12px;}.cls-6{stroke-width:18px;}</style></defs><title>Discovery</title><path class="cls-1" d="M144.79,147.92c-6.92-14.66-14.47-27.78-21.72-44.7-2.33-4.28-5.15-10.2-7.35-14.34a29.26,29.26,0,0,0-6.41-3.94c-9.76-3.89-16-5.25-25.71-3.61-2.81.48-9.5,3.49-11.51,4.66-1.18.75-1.74,1.28-3.52,2.39-.4.64-1.33,2.77-1.8,3.38a15.18,15.18,0,0,1-.91,1.86c-6.07,13.22-15.69,31.86-22.93,46.62-6.3,12.84-19.09,39.85-25.94,52.59.63.44,7.67-9.2,9.84-11.45,21.64-20.16,42.11-27.74,65.47-27.74,23.62,0,49.52,7.58,74.39,38.73C161,180.74,149.51,157.92,144.79,147.92Z"/><path class="cls-1" d="M361.64,147.92c-6.92-14.66-14.48-27.78-21.72-44.7-2.33-4.28-5.15-10.2-7.36-14.34a29.08,29.08,0,0,0-6.4-3.94c-9.76-3.89-16-5.25-25.71-3.61-2.81.48-9.5,3.49-11.51,4.66-1.18.75-1.74,1.28-3.52,2.39-.4.64-1.33,2.77-1.8,3.38a15.18,15.18,0,0,1-.91,1.86c-6.08,13.22-15.69,31.86-22.93,46.62-6.3,12.84-19.09,39.85-25.94,52.59.63.44,7.67-9.2,9.83-11.45,21.65-20.16,42.12-27.74,65.48-27.74,23.62,0,49.52,7.58,74.38,38.73C377.81,180.74,366.36,157.92,361.64,147.92Z"/><line class="cls-2" x1="10.72" y1="207.41" x2="68.37" y2="88.53"/><line class="cls-2" x1="173.8" y1="210.63" x2="115.72" y2="88.88"/><line class="cls-2" x1="225.5" y1="211.65" x2="284.98" y2="88.47"/><line class="cls-2" x1="392.15" y1="210.22" x2="332.39" y2="88.89"/><line class="cls-2" x1="139.89" y1="137.96" x2="260.61" y2="137.96"/><rect class="cls-3" x="177.72" y="236.48" width="44.94" height="11.98"/><rect class="cls-4" x="177.72" y="242.45" width="44.94" height="0.04"/><circle class="cls-5" cx="308.57" cy="243.52" r="89.88"/><circle class="cls-6" cx="308.57" cy="243.52" r="82.31"/><circle class="cls-5" cx="308.57" cy="243.52" r="73.03"/><circle class="cls-5" cx="91.95" cy="243.52" r="89.88"/><circle class="cls-5" cx="91.95" cy="243.52" r="73.03"/><path class="cls-2" d="M285,88.47c7.85-5.83,14.75-7.86,23.59-7.86,8.58,0,16.18,2.78,23.82,8.28"/><path class="cls-2" d="M68.37,88.53c7.84-5.84,14.46-7.92,23.3-7.92,8.58,0,16.4,2.77,24,8.27"/><circle class="cls-6" cx="91.9" cy="242.55" r="81.07"/></svg>