<svg id="Layer_1" data-name="Layer 1" xmlns="http://www.w3.org/2000/svg" viewBox="0 0 400 400"><defs><style>.cls-1{fill:#9fc6ff;}.cls-2,.cls-3{fill:none;stroke:#005cff;stroke-linecap:round;stroke-linejoin:round;}.cls-2{stroke-width:4px;}.cls-3{stroke-width:10px;}</style></defs><title>Strategy &amp;amp; Planning</title><path class="cls-1" d="M217.44,63.26c-6.5-7.62-10.05-9.06-20.36-11.41a28.45,28.45,0,0,0-6.32-.08,55,55,0,0,0-8.15,2.29c-.49.16-3.45,1.84-4.46,2.24-5.52,3.37-6,4.69-10.36,10.1-3.78,3-4.45,3.39-8.28,4.39-.13-5.8.07-15.65.05-21.46.19-2.6-.33-2.69.17-5.35-.1-8.93-.31-12,0-16.71,0-.11,0-1.89,0-2-.13-2.82.06-8.26,0-9.43a9.3,9.3,0,0,1-.2-1.36c0-.38-.12-.77-.12-1.15v-.86a21.73,21.73,0,0,1,.58-4.88c-.06-1-.13-2.72-.07-3.77-1.89-.5-3.85-.22-6.09-.22-.75,0-1.47.05-2.18.1s-1.2-.09-1.83-.1a22.76,22.76,0,0,0-7.68,0h0a23.72,23.72,0,0,0-2.73.23,19.81,19.81,0,0,0-2.19-.23h-.38l-8.22,0c-18.54-.1-35.5-.14-54,.06C57.38,3.83,36,1.32,25.8,8.57c-1.9,1.34-6.78,3.88-8.21,5.32C11.73,18.37,8.05,24,5,31.14c.06.76-.84,4.87-.84,5.67,0,15.08-.15,29.8-.33,44.21a103.2,103.2,0,0,1,.18,10.46c-.11,17.43.35,33.82-.15,51.23.51,2.22.05,7,.19,11.48,0,1.52.12,4,0,5.56.82,0,3,.13,3.8.12,20-.12,35.72,0,55.81,0,4.45-.17,8.33-.34,8.27-.27-2.91-6.74-8.33-9.29-11.42-13.48-3.2-3.39-6.18-7.24-6.87-11.91-2.71-7.9.4-21.77,5.64-27.24,6.65-6.67,10.39-10,16.73-10.9,2.37-.85,5.15-.64,8.13-.64a22,22,0,0,1,11.18,2.85,25.21,25.21,0,0,1,10,6.35c4.11,4.16,6.31,12.1,6.62,15.7v.28a21.13,21.13,0,0,1-.28,2.77c.85,5.49-.37,13.79-4.36,19.11-1.74,2.49-7.26,7.11-10.15,10.36-1.23,1.72-1.11,2-2.43,3.7-.29.93-1.68,2.72-.81,3.53,3.1.2,5.91-.16,9,.22,2.15-.25,6.56-.26,10.08-.27,15.52,0,31.55-.43,46.33-.43,0,0,0-1.5,0-1.5.4-8.7.38-16.58.43-22.73-.43-9.55.38-33.63-.22-42.63,4.86,1.82,10.5,8.77,12.32,10.52a31.15,31.15,0,0,0,6.21,4.43,20,20,0,0,0,6.13,2.92c22,7.54,36.43-10.06,37-15.17C225,90.55,226.87,74.31,217.44,63.26Z"/><path class="cls-2" d="M159.86,3.55c-.1,13.16-.23,27.26-.28,40.48q0,13.41-.07,26.76a11.44,11.44,0,0,0,2.06-.36c4.8-1.3,7.44-5.5,8.58-7.08C175.43,56,185.21,53,186.59,52.62c10.74-3.22,20.72,2.33,22.27,3.22A31.87,31.87,0,0,1,223,73.58a30.8,30.8,0,0,1,.92,13.67,31.12,31.12,0,0,1-4.54,11.66,29.28,29.28,0,0,1-11.41,10.59,29.77,29.77,0,0,1-14.11,3.08,31.23,31.23,0,0,1-13.55-3.65A34,34,0,0,1,169,100.34a26.06,26.06,0,0,0-4.32-4.51,23.92,23.92,0,0,0-5.18-3.15V225.2a11.85,11.85,0,0,1-4-.81c-1.76-.94-3.17-4.17-6.37-6.78a49,49,0,0,0-5.26-4,33.2,33.2,0,0,0-18.78-5.33,30,30,0,0,0-18.79,7.16c-9.38,8.11-10.23,19.31-10.35,22.1a31.65,31.65,0,0,0,4.61,17.82c.48.77,8.64,13.26,23.32,14a30.72,30.72,0,0,0,16.45-4.22c1.15-.69,7.58-4.72,10.78-9.66a10.05,10.05,0,0,1,1.7-2.07,11.75,11.75,0,0,1,7.31-2.79v66H44.15c-.41,0-1,0-1.77-.07a40,40,0,0,1-19.79-7.09A41.53,41.53,0,0,1,10,295.32a42.37,42.37,0,0,1-5-17.46q-.42-59.06-.85-118.11H72c.07-.52-.42-1.34-1.33-2.86a23.37,23.37,0,0,0-6.24-6.68,38.06,38.06,0,0,1-8.13-9.73,29,29,0,0,1-3.59-16A31.43,31.43,0,0,1,58.54,108c1.39-1.92,8.25-10.92,20.61-12.59,9.59-1.29,20.65,2.08,27.23,10.69,6.38,8.35,5.74,18,5.48,21.94-.27,4.16-.61,9.21-4,13.74a84.71,84.71,0,0,1-7.75,8.2,21.75,21.75,0,0,0-4.73,5.72c-.53,1-1.89,3.47-1.7,4.39L230,159.75c.94,1.36.44,3.76-.4,5.05a33.82,33.82,0,0,1-5.06,4.66A75.77,75.77,0,0,0,216,176.2c-5.45,5-6.88,12.16-7.19,16.75-.22,3.11-.88,16.17,8.17,24.61,4.63,4.32,9.92,5.63,13.42,6.49,3.33.82,9.26,2.28,16.26.19,9.54-2.84,14.48-10.3,16.08-12.78,1.48-2.32,5.79-9.23,5.1-18.32-.74-9.83-7-17.18-7.94-18.32-1.71-2-7.42-6.65-9.56-9.72a7.31,7.31,0,0,1-1.22-5.73h65.42V37.45c0-1.69-1.06-5.81-3.4-10.69-1.58-3.28-6.81-13-18-18.7a44.35,44.35,0,0,0-16.26-4.38c-1.95-.18-3.41-.19-3.79-.2-5.41-.06-229.91.2-229.91.2a39.82,39.82,0,0,0-13,2.86C18.3,11.33,4.2,22.81,4.09,38c-.1,12.64,0,112,0,121.73"/><path class="cls-3" d="M239.45,238.88v70.39a7.67,7.67,0,0,1-4.53-.38,19.92,19.92,0,0,1-4.16-4.19s-4.62-5.4-8-8.77a28.23,28.23,0,0,0-16.05-7.06c-3.08-.2-16-1.13-24.39,8-4.28,4.67-5.57,10-6.43,13.55-.81,3.35-2.26,9.34-.19,16.4,2.82,9.62,10.21,14.62,12.67,16.22,2.3,1.5,9.15,5.85,18.15,5.15,9.75-.75,17-7,18.15-8,1.95-1.72,5.8-5.31,10.69-9.17,0,0,3.91-.93,4.54-.74l.09,65.05H360.85c1.67,0,5.75-1.07,10.59-3.43A41.1,41.1,0,0,0,390,373.77a45.38,45.38,0,0,0,4.35-16.41c.18-2,.19-3.44.19-3.81.06-5.47,0-114.32,0-114.32"/><path class="cls-3" d="M394.52,239.23c-13-.1-27.09-.23-40.2-.28q-13.27-.06-26.51-.07a10.53,10.53,0,0,0,.35,2.07c1.29,4.85,5.45,7.52,7,8.66,7.32,5.33,10.22,15.2,10.64,16.6,3.18,10.84-2.31,20.9-3.2,22.46A31.69,31.69,0,0,1,325,302.91a29.68,29.68,0,0,1-13.54.93,30.42,30.42,0,0,1-11.56-4.58,29.28,29.28,0,0,1-10.49-11.52,30.42,30.42,0,0,1-3.05-14.23A31.93,31.93,0,0,1,290,259.84a34.25,34.25,0,0,1,8.51-11.38A25.7,25.7,0,0,0,303,244.1a24.32,24.32,0,0,0,3.12-5.22H239.45"/></svg>