<svg id="Layer_1" data-name="Layer 1" xmlns="http://www.w3.org/2000/svg" viewBox="0 0 400 400"><defs><style>.cls-1,.cls-2,.cls-5{fill:#9fc6ff;}.cls-2,.cls-3,.cls-4,.cls-5,.cls-6{stroke:#005cff;}.cls-2,.cls-3,.cls-6{stroke-linecap:round;stroke-linejoin:round;}.cls-2,.cls-3,.cls-4,.cls-5{stroke-width:4px;}.cls-3,.cls-4,.cls-6{fill:none;}.cls-4,.cls-5{stroke-miterlimit:10;}.cls-6{stroke-width:10px;}</style></defs><title>UI Design</title><path class="cls-1" d="M243,219.31a20.45,20.45,0,0,1-5.05-4.56,19.56,19.56,0,0,1-3.9-3.05,8.76,8.76,0,0,0-.91-.09c-28.9-.54-57.8-.62-86.71-.44a140.71,140.71,0,0,0-19.37-.2c-5.3,7.72-10.79,15.65-18.18,21.41a39.69,39.69,0,0,1-4.56,3,22.57,22.57,0,0,1,1.77,2.54c5,.87,9.94,1.49,14.91,1.93,16.93-1,34.18.55,51.1.48,22.82-.09,45.74-.8,68.53-1.94.69,0,1.33,0,2,0a19.25,19.25,0,0,1,3.37-2.34,40.24,40.24,0,0,1,1.85-3.72c0-.43,0-.86,0-1.29,0-2.38-.06-4.77-.12-7.16A19.89,19.89,0,0,1,243,219.31Z"/><path class="cls-2" d="M247.51,223.37c-12.06-9.89-17.7-15.36-29.19-24.84-1.87-1.55-6.83-6.17-9.15-7.58-3.78-2.29-9.57-1.72-12.39.5-4.42,3.48-21.35,18.27-27.1,23.62"/><line class="cls-3" x1="107.88" y1="314.63" x2="245.05" y2="314.63"/><line class="cls-3" x1="107.88" y1="280.52" x2="245.05" y2="280.52"/><line class="cls-3" x1="107.88" y1="125.66" x2="245.05" y2="125.66"/><line class="cls-3" x1="107.88" y1="348.31" x2="245.05" y2="348.31"/><rect class="cls-3" x="76.33" y="49.47" width="200.79" height="347.96" rx="14.48" ry="14.48"/><polyline class="cls-3" points="93.97 189.49 85.22 198.71 93.82 207.78"/><polyline class="cls-3" points="257.85 189.49 266.6 198.71 258 207.78"/><polygon class="cls-3" points="333.09 74.67 317.48 111.81 352 87.34 314.18 87.34 349.39 111.81 333.09 74.67"/><polygon class="cls-3" points="21.57 274.42 5.95 311.56 40.48 287.08 2.65 287.08 37.87 311.56 21.57 274.42"/><polygon class="cls-3" points="46.42 2.4 30.81 39.53 65.33 15.06 27.51 15.06 62.72 39.53 46.42 2.4"/><rect class="cls-4" x="103.28" y="157.95" width="144.23" height="81.37" rx="8.09" ry="8.09"/><rect class="cls-5" x="89.88" y="65.97" width="173.67" height="28.7" rx="5.27" ry="5.27"/><path class="cls-2" d="M107.17,233.27c9-9,33.76-34.64,36.55-37.56,4.62-4.84,10.11-4.62,14.46-1.21,3,2.37,33,28.29,42.28,36"/><path class="cls-2" d="M131.14,180.77c3,.44,5.7-1.53,6-5.42.4-5.15-3.92-8.35-8.22-6S125.28,179.9,131.14,180.77Z"/><path class="cls-6" d="M312.7,314.07c-2.26,4.76-2.28,7.7-4.6,16.07a39.63,39.63,0,0,1,16.64,10.91c6.31-6.7,9.68-8.44,12.7-13.08,19.71-30.27,60.34-129.71,57.41-131.35C391.77,194.88,328.27,281.48,312.7,314.07Z"/><path class="cls-6" d="M306.26,329.32c-12.11,1.44-21.25,12.14-23.33,32.58s-13.42,31.8-16.18,32.15c15.67.84,62.69.89,58.35-52.1A34.58,34.58,0,0,0,306.26,329.32Z"/><circle class="cls-4" cx="243.14" cy="78.85" r="4.03"/><line class="cls-3" x1="249.69" y1="86.64" x2="245.67" y2="81.99"/><line class="cls-3" x1="105.45" y1="79.23" x2="156.56" y2="79.23"/><line class="cls-3" x1="168.7" y1="79.23" x2="194.04" y2="79.23"/><line class="cls-3" x1="205.15" y1="79.23" x2="218.33" y2="79.23"/></svg>