<?xml version="1.0" encoding="utf-8"?>
<!-- Generator: Adobe Illustrator 22.1.0, SVG Export Plug-In . SVG Version: 6.00 Build 0)  -->
<svg version="1.1" id="Layer_1" xmlns="http://www.w3.org/2000/svg" xmlns:xlink="http://www.w3.org/1999/xlink" x="0px" y="0px"
	 viewBox="0 0 1000 1000" style="enable-background:new 0 0 1000 1000;" xml:space="preserve">
<style type="text/css">
	.st0{fill:url(#SVGID_1_);stroke:url(#SVGID_2_);stroke-miterlimit:10;}
	.st1{fill:url(#SVGID_3_);}
	.st2{opacity:0.14;fill:#FFFFFF;}
	.st3{opacity:0.1;}
	.st4{opacity:5.000000e-02;fill:#FFFFFF;}
	.st5{fill:none;stroke:#06C6FD;stroke-miterlimit:10;}
	.st6{fill:#FFFFFF;}
	.st7{fill:none;stroke:#31D0FE;stroke-miterlimit:10;}
	.st8{fill:#E0E6E8;}
	.st9{fill:#E0E6E8;stroke:#06CBFF;stroke-miterlimit:10;}
	.st10{fill:none;stroke:#06CBFF;stroke-miterlimit:10;}
	.st11{fill:#B7BFC6;}
	.st12{opacity:0.5;fill:#4A6C98;}
	.st13{fill:url(#SVGID_4_);}
	.st14{fill:url(#SVGID_5_);}
	.st15{fill:#FFFFFF;stroke:#80FCFF;stroke-miterlimit:10;}
	.st16{fill:#FF7381;}
	.st17{fill:#FF4743;}
	.st18{fill:#005CCD;}
	.st19{fill:url(#SVGID_6_);}
</style>
<linearGradient id="SVGID_1_" gradientUnits="userSpaceOnUse" x1="476.1399" y1="295.2203" x2="769.4948" y2="304.7545" gradientTransform="matrix(0.8188 0.3337 -0.2722 0.6678 193.2402 -101.6378)">
	<stop  offset="0" style="stop-color:#005CFF"/>
	<stop  offset="1" style="stop-color:#002269"/>
</linearGradient>
<linearGradient id="SVGID_2_" gradientUnits="userSpaceOnUse" x1="512.6112" y1="267.8824" x2="750.884" y2="267.8824" gradientTransform="matrix(0.8082 -0.1595 0.3022 0.7294 29.3125 204.1668)">
	<stop  offset="0" style="stop-color:#0081E5"/>
	<stop  offset="1" style="stop-color:#004CB0"/>
</linearGradient>
<path class="st0" d="M736.9,366.3c-15.2,37.3-76.1,47.7-136,23.3c-59.9-24.4-98-100.9-91.7-140.7c5.8-36.5,25.9-52.6,53.3-52.6
	c57.9,0,65.7,46.9,93.5,58.2C715.8,279,752.1,329,736.9,366.3z"/>
<linearGradient id="SVGID_3_" gradientUnits="userSpaceOnUse" x1="183.4919" y1="309.2059" x2="802.1313" y2="772.8003">
	<stop  offset="0" style="stop-color:#005CFF"/>
	<stop  offset="1" style="stop-color:#002269"/>
</linearGradient>
<path class="st1" d="M901.9,460.2C945,647.5,789.2,816.6,601.9,859.8S195.2,783.3,152,596s-4.4-386.2,187.4-399.2
	C490.9,186.5,437,358,555.8,428.1C719,524.4,876.9,351.8,901.9,460.2z"/>
<path class="st2" d="M339.4,196.8c-65,4.4-112.4,30.2-145,69.6c27,35.4,69.6,58.2,117.5,58.2c56.6,0,105.8-31.9,130.6-78.7
	C423.5,214.2,395.6,193,339.4,196.8z"/>
<path class="st3" d="M905.1,476.5c-60.8,15-228.5,63.2-153.7,122.6c50.1,39.8,107.7,18.8,149.3-7.9
	C909.9,554.6,911.9,516,905.1,476.5z"/>
<path class="st3" d="M776.1,726c-100.5,93.9-199.7,97.1-199.7,97.1s-254.8,25-50.8-125s104-187.7,104-187.7
	C315.3,582.5,311.9,674,298.4,799.1c87.8,58.9,200.5,84.4,303.6,60.7c96.3-22.2,184.2-77.7,241.1-151.8
	C827.8,696.1,805.3,698.7,776.1,726z"/>
<path class="st4" d="M274.6,395.6c-28-30.4-84.8-25-135,9.8c-7.6,59.2-2.6,125.1,12.2,189.7c27.2-5.8,56.6-21.2,82.4-45
	C288.8,499.8,306.9,430.6,274.6,395.6z"/>
<path class="st5" d="M239.2,725.4c19.9,3.4,213.3-67,157.8-200.5s-233.5-42-233.5-42L136.1,494"/>
<g>
	<path class="st6" d="M295,643c4.1,4.7,8.6,9.1,13.1,13.5c4.5,4.3,9.2,8.5,13.9,12.6c9.5,8.1,19.4,15.8,29.6,22.9
		c5.1,3.6,10.3,7,15.6,10.3c5.3,3.3,10.7,6.4,16.1,9.4c5.5,3,11,5.8,16.6,8.5c5.6,2.6,11.3,5.2,17.1,7.6c11.5,4.7,23.3,8.7,35.3,12
		c12,3.2,24.2,5.7,36.4,7.4c24.6,3.3,49.5,3.1,74-0.3c24.5-3.3,48.5-10,71.5-19.2c2.9-1.1,5.7-2.4,8.6-3.6l4.3-1.8l4.2-1.9
		c5.6-2.6,11.2-5.4,16.6-8.3c10.9-5.8,21.5-12.2,31.5-19.3c10-7.2,19.4-15.1,27.8-23.9c8.4-8.8,15.9-18.5,21.7-29
		c5.9-10.5,10.1-21.9,11.9-33.6c1.8-11.7,1.2-23.8-2.2-35c-3.4-11.2-9.6-21.5-18.1-29.4c-4.2-4-9-7.3-14.2-9.9
		c-5.2-2.6-10.7-4.4-16.4-5.3c-5.7-0.9-11.5-1-17.3-0.3c-1.5,0.2-2.9,0.4-4.3,0.7l-4.6,0.9c-3,0.6-6.1,1.2-9.1,1.9
		c-12.1,2.6-24.2,5.7-36.2,9c-12,3.3-24.1,6.7-36.3,9.8c-12.2,3.1-24.5,6-37.1,8c-12.6,2-25.4,3.1-38.3,2.6
		c-6.4-0.2-12.8-0.8-19.2-1.8c-6.4-1-12.6-2.4-18.8-4.2c-6.2-1.8-12.2-3.9-18.1-6.3c-5.9-2.4-11.7-5-17.4-8
		c-11.3-6-22.1-13.3-31.1-22.7c-4.5-4.7-8.5-10-11.6-15.8c-3.2-5.8-5.5-12-6.7-18.5c-1.2-6.5-1.4-13.2-0.4-19.7
		c0.5-3.3,1.2-6.5,2.3-9.6c1-3.1,2.3-6.2,3.9-9.1c3.2-5.8,8-10.8,13.5-14.4c5.5-3.6,11.7-6,18-7.4c6.3-1.4,12.7-2,19-2.1
		c6.4-0.1,12.7,0.3,19,1c6.3,0.8,12.5,1.7,18.6,3.2c6.2,1.4,12.2,3.3,18.1,5.6c5.9,2.3,11.5,5.1,16.9,8.3c2.7,1.6,5.3,3.3,7.9,5.2
		c2.5,1.9,5,3.8,7.2,6c-2.3-2.1-4.8-4-7.4-5.7c-2.6-1.7-5.3-3.3-8-4.8c-5.5-3-11.2-5.4-17.1-7.5c-5.9-2-11.9-3.7-18-4.8
		c-6.1-1.2-12.3-1.9-18.5-2.5c-12.3-1-24.9-0.9-36.7,2.1c-5.9,1.5-11.5,3.9-16.4,7.3c-4.9,3.4-8.8,7.9-11.6,13.1
		c-1.4,2.6-2.5,5.4-3.3,8.2c-0.9,2.9-1.5,5.8-1.8,8.7c-0.7,5.9-0.5,11.9,0.8,17.7c1.2,5.8,3.5,11.4,6.4,16.5
		c3,5.2,6.7,9.9,10.9,14.1c8.4,8.6,18.7,15.3,29.6,20.8c5.5,2.7,11.1,5.2,16.8,7.4c5.7,2.2,11.5,4.1,17.4,5.7
		c11.8,3.1,23.9,4.9,36.1,5.2c12.2,0.3,24.4-0.8,36.5-2.9c24.3-4.1,48.1-11.7,72.3-18.3c12.1-3.3,24.3-6.5,36.7-9.2
		c3.1-0.7,6.2-1.3,9.3-2l4.7-0.9c1.6-0.3,3.3-0.6,4.9-0.8c6.7-0.9,13.5-0.8,20.1,0.3c13.4,2.1,26,8.4,35.8,17.7
		c9.8,9.2,16.9,21.1,20.7,33.9c3.8,12.8,4.5,26.4,2.4,39.3c-2.1,13-6.8,25.5-13.1,36.8c-6.4,11.3-14.5,21.6-23.4,30.7
		c-9,9.2-18.9,17.3-29.4,24.7c-20.9,14.6-43.8,25.9-67.4,35c-23.6,9.1-48.3,15.6-73.5,18.7c-25.2,3.1-50.7,2.7-75.7-1
		c-12.5-1.9-24.9-4.7-37-8.2c-12.1-3.6-24-7.9-35.5-12.9c-23.1-10-45-22.8-65.2-37.7c-10.1-7.4-19.9-15.4-29.1-23.9
		c-4.6-4.2-9.1-8.6-13.5-13.1C303.3,652.4,299,647.8,295,643z"/>
</g>
<path class="st7" d="M295,643c0,0,144.3,174.7,353.6,83c180-78.9,121.9-219.6,39.4-204c-82.5,15.6-138.2,49.7-211,23.1
	s-77.6-70.8-67-96.2c10.6-25.4,40.6-31.4,79.6-25.4s58.3,25.4,58.3,25.4"/>
<g>
	<polygon class="st8" points="744.8,214.3 673.5,240.8 750.5,284.4 	"/>
	
		<ellipse transform="matrix(0.4926 -0.8703 0.8703 0.4926 128.2221 752.6755)" class="st9" cx="709.6" cy="266.4" rx="24" ry="44.5"/>
	<polyline class="st9" points="747.8,289.3 587.7,572.2 510.3,528.3 670.3,245.5 	"/>
	<path class="st6" d="M712,241.6L552.3,524.1c-11-5-26.6-5.2-26.6-5.2l160.2-282.2c0,0,9.5,0.2,12.6,0.7
		C705.2,238.6,712,241.6,712,241.6z"/>
	
		<ellipse transform="matrix(0.5303 -0.8478 0.8478 0.5303 -183.4361 723.8301)" class="st10" cx="561.5" cy="527.5" rx="24" ry="44.5"/>
	
		<ellipse transform="matrix(0.5303 -0.8478 0.8478 0.5303 -207.9993 724.3541)" class="st9" cx="549.7" cy="549.9" rx="24" ry="44.5"/>
	<path class="st6" d="M694.6,234.6c0,0,9.1-0.2,18.4,4.8l25.2-21.2L694.6,234.6z"/>
	<path class="st11" d="M586.1,515.7l148.1-257.9c0,0,8.5,0.6,16.3,26.7l-149,262.1c0,0,0.8-4.7-0.6-9.5c-0.8-2.9-2.6-6-4.2-8.9
		C594.6,523.9,586.1,515.7,586.1,515.7z"/>
	<path class="st11" d="M572.5,537l13-20.5c0,0,17.4,14.1,15.3,30.9l-10.6,20.1c0,0,0.2-8.8-5.9-17.9
		C581.5,545.3,578.5,540.6,572.5,537z"/>
	<polygon class="st8" points="525.5,502.2 517.5,516.9 521.6,518.8 524.8,518.3 532.9,501.1 	"/>
	<line class="st10" x1="552.3" y1="524.1" x2="712" y2="241.6"/>
	<line class="st10" x1="572.5" y1="537" x2="734.2" y2="257.8"/>
	<line class="st10" x1="524.8" y1="518.3" x2="685.8" y2="236.7"/>
</g>
<polygon class="st12" points="621.8,534.5 621,543.7 601.5,548.8 608.1,537.3 621.8,533.3 "/>
<polygon class="st12" points="430.8,717.9 432.3,716.1 425.8,709.2 425.8,712.3 "/>
<g>
	<g>
		<path class="st8" d="M365.1,359.1c1.9,0,1.9-3,0-3C363.2,356.1,363.2,359.1,365.1,359.1L365.1,359.1z"/>
	</g>
</g>
<g>
	<g>
		<path class="st8" d="M255.6,293.1c1.9,0,1.9-3,0-3C253.7,290.1,253.7,293.1,255.6,293.1L255.6,293.1z"/>
	</g>
</g>
<g>
	<g>
		<path class="st8" d="M393.6,413.1c1.9,0,1.9-3,0-3C391.7,410.1,391.7,413.1,393.6,413.1L393.6,413.1z"/>
	</g>
</g>
<g>
	<g>
		<path class="st8" d="M471.6,678.6c1.9,0,1.9-3,0-3C469.7,675.6,469.7,678.6,471.6,678.6L471.6,678.6z"/>
	</g>
</g>
<g>
	<g>
		<path class="st8" d="M618.6,663.6c1.9,0,1.9-3,0-3C616.7,660.6,616.7,663.6,618.6,663.6L618.6,663.6z"/>
	</g>
</g>
<g>
	<g>
		<path class="st8" d="M810.6,681.6c1.9,0,1.9-3,0-3C808.6,678.6,808.6,681.6,810.6,681.6L810.6,681.6z"/>
	</g>
</g>
<g>
	<g>
		<path class="st8" d="M594.6,783.6c1.9,0,1.9-3,0-3C592.7,780.6,592.7,783.6,594.6,783.6L594.6,783.6z"/>
	</g>
</g>
<g>
	<g>
		<path class="st8" d="M306.6,723.6c1.9,0,1.9-3,0-3C304.7,720.6,304.7,723.6,306.6,723.6L306.6,723.6z"/>
	</g>
</g>
<g>
	<g>
		<path class="st8" d="M252.6,450.6c1.9,0,1.9-3,0-3C250.7,447.6,250.7,450.6,252.6,450.6L252.6,450.6z"/>
	</g>
</g>
<g>
	<g>
		<path class="st8" d="M222.6,365.1c1.9,0,1.9-3,0-3C220.7,362.1,220.7,365.1,222.6,365.1L222.6,365.1z"/>
	</g>
</g>
<g>
	<g>
		<path class="st8" d="M273.6,341.1c1.9,0,1.9-3,0-3C271.7,338.1,271.7,341.1,273.6,341.1L273.6,341.1z"/>
	</g>
</g>
<g>
	<g>
		<path class="st8" d="M305.1,380.1c1.9,0,1.9-3,0-3C303.2,377.1,303.2,380.1,305.1,380.1L305.1,380.1z"/>
	</g>
</g>
<g>
	<g>
		<path class="st8" d="M371.1,291.6c1.9,0,1.9-3,0-3C369.2,288.6,369.2,291.6,371.1,291.6L371.1,291.6z"/>
	</g>
</g>
<g>
	<g>
		<path class="st8" d="M410.1,255.6c1.9,0,1.9-3,0-3C408.2,252.6,408.2,255.6,410.1,255.6L410.1,255.6z"/>
	</g>
</g>
<g>
	<g>
		<path class="st8" d="M572.1,237.6c1.9,0,1.9-3,0-3C570.2,234.6,570.2,237.6,572.1,237.6L572.1,237.6z"/>
	</g>
</g>
<g>
	<g>
		<path class="st8" d="M582.6,327.6c1.9,0,1.9-3,0-3C580.7,324.6,580.7,327.6,582.6,327.6L582.6,327.6z"/>
	</g>
</g>
<g>
	<g>
		<path class="st8" d="M534.6,279.6c1.9,0,1.9-3,0-3C532.7,276.6,532.7,279.6,534.6,279.6L534.6,279.6z"/>
	</g>
</g>
<g>
	<g>
		<path class="st8" d="M603.6,288.6c1.9,0,1.9-3,0-3C601.7,285.6,601.7,288.6,603.6,288.6L603.6,288.6z"/>
	</g>
</g>
<g>
	<g>
		<path class="st8" d="M759.6,461.1c1.9,0,1.9-3,0-3C757.6,458.1,757.6,461.1,759.6,461.1L759.6,461.1z"/>
	</g>
</g>
<g>
	<g>
		<path class="st8" d="M842.1,593.1c1.9,0,1.9-3,0-3C840.1,590.1,840.1,593.1,842.1,593.1L842.1,593.1z"/>
	</g>
</g>
<g>
	<g>
		<path class="st8" d="M717.6,632.1c1.9,0,1.9-3,0-3C715.6,629.1,715.6,632.1,717.6,632.1L717.6,632.1z"/>
	</g>
</g>
<g>
	<g>
		<path class="st8" d="M660.6,593.1c1.9,0,1.9-3,0-3C658.7,590.1,658.6,593.1,660.6,593.1L660.6,593.1z"/>
	</g>
</g>
<g>
	<g>
		<path class="st8" d="M555.6,776.1c1.9,0,1.9-3,0-3C553.7,773.1,553.7,776.1,555.6,776.1L555.6,776.1z"/>
	</g>
</g>
<g>
	<g>
		<path class="st8" d="M573.6,695.1c1.9,0,1.9-3,0-3C571.7,692.1,571.7,695.1,573.6,695.1L573.6,695.1z"/>
	</g>
</g>
<g>
	<g>
		<path class="st8" d="M485.1,816.6c1.9,0,1.9-3,0-3C483.2,813.6,483.2,816.6,485.1,816.6L485.1,816.6z"/>
	</g>
</g>
<g>
	<g>
		<path class="st8" d="M237.6,701.1c1.9,0,1.9-3,0-3C235.7,698.1,235.7,701.1,237.6,701.1L237.6,701.1z"/>
	</g>
</g>
<g>
	<g>
		<path class="st8" d="M261.6,659.1c1.9,0,1.9-3,0-3C259.7,656.1,259.7,659.1,261.6,659.1L261.6,659.1z"/>
	</g>
</g>
<g>
	<g>
		<path class="st8" d="M173.1,609.6c1.9,0,1.9-3,0-3C171.2,606.6,171.2,609.6,173.1,609.6L173.1,609.6z"/>
	</g>
</g>
<g>
	<g>
		<path class="st8" d="M188.1,551.1c1.9,0,1.9-3,0-3C186.2,548.1,186.2,551.1,188.1,551.1L188.1,551.1z"/>
	</g>
</g>
<g>
	<g>
		<path class="st8" d="M219.6,521.1c1.9,0,1.9-3,0-3C217.7,518.1,217.7,521.1,219.6,521.1L219.6,521.1z"/>
	</g>
</g>
<g>
	<g>
		<path class="st8" d="M276.6,404.1c1.9,0,1.9-3,0-3C274.7,401.1,274.7,404.1,276.6,404.1L276.6,404.1z"/>
	</g>
</g>
<g>
	<g>
		<path class="st8" d="M231.6,372.6c1.9,0,1.9-3,0-3C229.7,369.6,229.7,372.6,231.6,372.6L231.6,372.6z"/>
	</g>
</g>
<g>
	<g>
		<path class="st8" d="M299.1,327.6c1.9,0,1.9-3,0-3C297.2,324.6,297.2,327.6,299.1,327.6L299.1,327.6z"/>
	</g>
</g>
<g>
	<g>
		<path class="st8" d="M411.6,453.6c1.9,0,1.9-3,0-3C409.7,450.6,409.7,453.6,411.6,453.6L411.6,453.6z"/>
	</g>
</g>
<g>
	<g>
		<path class="st8" d="M531.1,626.1c1.9,0,1.9-3,0-3C529.2,623.1,529.2,626.1,531.1,626.1L531.1,626.1z"/>
	</g>
</g>
<g>
	<g>
		<path class="st8" d="M587.1,698.1c1.9,0,1.9-3,0-3C585.2,695.1,585.2,698.1,587.1,698.1L587.1,698.1z"/>
	</g>
</g>
<g>
	<g>
		<path class="st8" d="M360.6,743.1c1.9,0,1.9-3,0-3C358.7,740.1,358.7,743.1,360.6,743.1L360.6,743.1z"/>
	</g>
</g>
<g>
	<g>
		<path class="st8" d="M263.1,714.6c1.9,0,1.9-3,0-3C261.2,711.6,261.2,714.6,263.1,714.6L263.1,714.6z"/>
	</g>
</g>
<g>
	<g>
		<path class="st8" d="M494.1,816.6c1.9,0,1.9-3,0-3C492.2,813.6,492.2,816.6,494.1,816.6L494.1,816.6z"/>
	</g>
</g>
<g>
	<g>
		<path class="st8" d="M450.6,764.1c1.9,0,1.9-3,0-3C448.7,761.1,448.7,764.1,450.6,764.1L450.6,764.1z"/>
	</g>
</g>
<g>
	<g>
		<path class="st8" d="M557.1,687.6c1.9,0,1.9-3,0-3C555.2,684.6,555.2,687.6,557.1,687.6L557.1,687.6z"/>
	</g>
</g>
<g>
	<g>
		<path class="st8" d="M401.1,446.1c1.9,0,1.9-3,0-3C399.2,443.1,399.2,446.1,401.1,446.1L401.1,446.1z"/>
	</g>
</g>
<g>
	<g>
		<path class="st8" d="M377.1,306.6c1.9,0,1.9-3,0-3C375.2,303.6,375.2,306.6,377.1,306.6L377.1,306.6z"/>
	</g>
</g>
<circle class="st6" cx="332" cy="293.4" r="6.3"/>
<circle class="st6" cx="557.9" cy="254.7" r="5.8"/>
<circle class="st6" cx="773.2" cy="500" r="6.4"/>
<circle class="st6" cx="632.3" cy="809.3" r="13.8"/>
<circle class="st6" cx="294.9" cy="697.8" r="4.2"/>
<linearGradient id="SVGID_4_" gradientUnits="userSpaceOnUse" x1="700.1199" y1="758.1035" x2="781.3453" y2="800.3951">
	<stop  offset="0" style="stop-color:#06CBFF"/>
	<stop  offset="1" style="stop-color:#05A6EF"/>
</linearGradient>
<path class="st13" d="M746.5,726c-32.3,0-58.5,26.2-58.5,58.5c0,14.8,5.5,28.3,14.5,38.6c35-17.8,67.4-40.2,95.6-66.1
	C788.3,738.5,768.9,726,746.5,726z"/>
<linearGradient id="SVGID_5_" gradientUnits="userSpaceOnUse" x1="220.3506" y1="508.666" x2="372.4071" y2="570.3792">
	<stop  offset="0" style="stop-color:#00FDFF"/>
	<stop  offset="1" style="stop-color:#00CEFC"/>
</linearGradient>
<circle class="st14" cx="290.8" cy="537.3" r="82"/>
<g>
	<path class="st15" d="M451.6,682.7c-13.1,6-52.3,50.3-52.3,50.3c-19.1-110.7-69.1-113.3-69.1-113.3h-81.8
		c-4.7,0.1-9.1,0.5-13.3,1.3c-29,5.5-44.9,27.7-53.4,52.8c9.2,16.7,19.8,32.6,31.7,47.6c30.4,38.2,69.1,70.3,112.5,94.6l49.1-14.3
		c27.3-8,51.4-24.5,68.3-47.4c19.5-26.4,29.4-50.9,29.4-50.9C453.6,698,451.6,682.7,451.6,682.7z"/>
	<path class="st16" d="M250.9,630.6c0,0,18.1-19.5,12.1-41.6l-5.4-48.3l37.6-28.3l25.8,8.2l7.7-2c0,0,15.8,41.5,13,62.6
		c0,0,1.3,28.2-30.9,18.1c0,0-2.5,18.1,5.8,21.6c8.3,3.5-5.5,14.1-5.5,14.1S273.8,657.9,250.9,630.6z"/>
	<path class="st17" d="M308.3,522.7c0,0,15.5,29.2,5.4,48.6c-1.6,3.1-4.6,5.3-8.1,5.9c-3,0.5-7.4,0.8-13.9,0.3c0,0-4.3,4.3-2.8,11.6
		c1.2,6.1-0.2,12.4-3.6,17.6c-7.2,11.3-19.1,28-27.6,30.3l-6.8-6.4l7.6-10.8c0,0,9-19.2,3.5-32.3l1.5-27.6l24.3-43.3L308.3,522.7z"
		/>
	<path class="st18" d="M268.9,589.9c2.1,0.6,7,0.2,7.2-17.9c0-0.6-0.1-1.3-0.2-1.9c-0.7-2.7-2.4-11.5,4.1-16.7
		c2.1-1.7,5-2.1,7.5-0.9c3.4,1.5,7.8,5,6.2,12.2c-0.4,2-0.1,4.1,1.1,5.8c1,1.3,2.5,2.5,5,2.5c0,0,9.4,2.5,0.2-21.1
		c-0.1-0.4-0.3-0.7-0.3-1.1c-0.8-3.6-3.7-21.9,14.6-25.4c0.4-0.1,0.9-0.1,1.4-0.1h21.6c1.4,0,2.7-0.4,3.9-1.1c3.6-2.2,10.2-8,6-18.5
		c0,0-3.8-19.1-30-8c-1.4,0.6-3,0.7-4.5,0.4c-9.7-2.2-46.5-8.8-47.3,16c-0.1,2.8-1.8,5.4-4.4,6.5c-6.2,2.6-16.2,10.8-14.9,36.1
		c0,0.2,0,0.4,0,0.6c-0.1,3.2-0.7,32.6,20.8,32.5C267.5,589.5,268.2,589.7,268.9,589.9z"/>
</g>
<path class="st16" d="M450.5,687.7c0,0,24.7-25.1,26.2-32l25.5-33.4l18,2.2c0,0,11.8,9.7,0,24.1c0,0-8.6,9.3-13.6,11.1
	c0,0-17.6,6.9-23.3,21.1l-18,25.6C465.1,706.4,452.2,693.1,450.5,687.7z"/>
<path class="st17" d="M454.4,692.6c0,0,12.9-15.2,25.9-13.5L467.3,703L454.4,692.6z"/>
<path class="st17" d="M508.2,658.9l-8.9-13.8l16.4-22.7c0,0,13.6,3.8,7.6,18.3C523.2,640.6,524.9,648.5,508.2,658.9z"/>
<g>
	<polygon class="st9" points="462.1,654.2 491.2,611.8 523.2,611.8 492.7,654.2 	"/>
	<polygon class="st11" points="492.7,658.9 525.3,615.1 523.2,611.8 492.7,654.2 462.1,654.2 462.1,658.9 	"/>
	<ellipse class="st18" cx="481.4" cy="648.1" rx="3.5" ry="1.3"/>
</g>
<path class="st8" d="M465.8,713.2c0,0-13.4-15.8-23.5,2.4c0,0-9.6,33.5-44.5,40.7c0,0-12.4,5.3-13.9-17.2l-3.6-33.1
	c-0.2-1.6-0.1-3.1,0.3-4.6l5.1-19.7l13.9,48.4c0,0,43.1-44.5,48.8-46c0,0,18.7,21.1,23,21.1L465.8,713.2z"/>
<linearGradient id="SVGID_6_" gradientUnits="userSpaceOnUse" x1="146.2875" y1="314.5528" x2="298.4471" y2="314.5528">
	<stop  offset="0" style="stop-color:#FF99BE"/>
	<stop  offset="1" style="stop-color:#FFC4D9"/>
</linearGradient>
<path class="st19" d="M146.3,368.3c15.8,18.9,39.5,30.9,66,30.9c47.6,0,86.1-38.6,86.1-86.1c0-39.8-27-73.2-63.6-83.1
	C188.5,260.6,160.1,309.8,146.3,368.3z"/>
<polygon class="st17" points="722.7,222.3 746,233 744,215.3 "/>
</svg>
