<svg width="161" height="54" viewBox="0 0 161 54" fill="none" xmlns="http://www.w3.org/2000/svg">
<path d="M51.0747 40.2653C48.5025 44.7273 42.8002 46.2593 38.3383 43.6871C38.3347 43.685 38.3311 43.683 38.3276 43.6809L23.1823 34.9234C18.7161 32.3409 17.1856 26.629 19.7622 22.1594C22.3343 17.6974 28.0366 16.1654 32.4986 18.7376C32.5022 18.7396 32.5057 18.7417 32.5093 18.7438L47.6546 27.5013C52.1208 30.0838 53.6513 35.7957 51.0747 40.2653Z" fill="#FC5654" fill-opacity="0.7"/>
<path d="M37.1084 9.31866C37.1084 4.17204 32.9362 -0.00012207 27.7896 -0.00012207C22.643 -0.00012207 18.4708 4.17204 18.4708 9.31866V26.8706C18.4708 32.0172 22.643 36.1893 27.7896 36.1893C32.9362 36.1893 37.1084 32.0172 37.1084 26.8706V9.31866Z" fill="#FC5654" fill-opacity="0.8"/>
<path d="M51.0747 13.5101C53.6513 17.9797 52.1208 23.6916 47.6546 26.2741L32.5093 35.0316C28.0508 37.6097 22.3465 36.0853 19.7684 31.6268C19.7663 31.6232 19.7643 31.6196 19.7622 31.616C17.1856 27.1464 18.7161 21.4345 23.1823 18.852L38.3276 10.0945C42.7861 7.5164 48.4904 9.04081 51.0685 13.4993C51.0706 13.5029 51.0726 13.5065 51.0747 13.5101Z" fill="#FC5654" fill-opacity="0.8"/>
<path d="M18.6519 44.4225C18.6519 49.5692 22.824 53.7413 27.9706 53.7413C33.1173 53.7413 37.2894 49.5692 37.2894 44.4225V26.8707C37.2894 21.724 33.1173 17.5519 27.9706 17.5519C22.824 17.5519 18.6519 21.724 18.6519 26.8707L18.6519 44.4225Z" fill="#FC5654" fill-opacity="0.6"/>
<path d="M4.67774 40.2653C2.10116 35.7957 3.63166 30.0838 8.09785 27.5013L23.2431 18.7438C27.7017 16.1657 33.406 17.6901 35.984 22.1486C35.9861 22.1522 35.9882 22.1558 35.9902 22.1593C38.5668 26.629 37.0363 32.3409 32.5701 34.9234L17.4249 43.6809C12.9663 46.259 7.26201 44.7346 4.68392 40.276C4.68186 40.2725 4.6798 40.2689 4.67774 40.2653Z" fill="#FC5654" fill-opacity="0.5"/>
<path d="M4.67777 13.5101C7.24994 9.0481 12.9522 7.51612 17.4142 10.0883C17.4177 10.0903 17.4213 10.0924 17.4249 10.0945L32.5702 18.852C37.0363 21.4345 38.5668 27.1464 35.9903 31.616C33.4181 36.078 27.7158 37.61 23.2539 35.0378C23.2503 35.0357 23.2467 35.0337 23.2431 35.0316L8.09788 26.2741C3.63169 23.6916 2.10119 17.9797 4.67777 13.5101Z" fill="#FC5654" fill-opacity="0.4"/>
<path d="M70.5632 36.437C69.1615 36.437 67.9455 36.2175 66.9153 35.7784C65.902 35.3393 65.1251 34.7651 64.5847 34.0558C64.0443 33.3296 63.7572 32.5527 63.7234 31.7252C63.7234 31.5901 63.7741 31.4718 63.8754 31.3705C63.9936 31.2523 64.1287 31.1932 64.2807 31.1932H65.5727C65.8936 31.1932 66.1131 31.3621 66.2313 31.6998C66.3833 32.4092 66.814 33.0171 67.5233 33.5238C68.2495 34.0304 69.2628 34.2838 70.5632 34.2838C71.9649 34.2838 73.0205 34.0389 73.7298 33.5491C74.4391 33.0425 74.7937 32.3416 74.7937 31.4465C74.7937 30.8723 74.6164 30.4079 74.2618 30.0532C73.924 29.6986 73.4173 29.3861 72.7418 29.1159C72.0663 28.8457 71.053 28.5079 69.7019 28.1026C68.3846 27.7311 67.3375 27.3342 66.5606 26.912C65.7838 26.4898 65.2011 25.9662 64.8127 25.3414C64.4243 24.7165 64.23 23.9312 64.23 22.9854C64.23 22.0734 64.4749 21.2544 64.9647 20.5282C65.4713 19.802 66.1891 19.2362 67.118 18.8309C68.0468 18.4087 69.153 18.1976 70.4365 18.1976C71.7538 18.1976 72.8854 18.434 73.8311 18.9069C74.7769 19.3629 75.4946 19.9455 75.9844 20.6548C76.4741 21.3641 76.7359 22.0734 76.7697 22.7828C76.7697 22.9179 76.719 23.0361 76.6177 23.1374C76.5333 23.2387 76.4066 23.2894 76.2377 23.2894H74.8951C74.5404 23.2894 74.3209 23.129 74.2364 22.8081C74.1351 22.0988 73.7382 21.5161 73.0458 21.0601C72.3534 20.5873 71.4836 20.3508 70.4365 20.3508C69.2881 20.3508 68.3846 20.5704 67.7259 21.0095C67.0673 21.4486 66.738 22.0988 66.738 22.9601C66.738 23.5343 66.89 24.0072 67.194 24.3787C67.5148 24.7503 67.9962 25.0796 68.6379 25.3667C69.2797 25.6369 70.217 25.9493 71.4498 26.304C72.8854 26.6924 74.0169 27.0977 74.8444 27.52C75.6719 27.9253 76.2884 28.4404 76.6937 29.0652C77.099 29.6732 77.3017 30.4501 77.3017 31.3959C77.3017 32.9665 76.6937 34.1993 75.4777 35.0944C74.2618 35.9895 72.6236 36.437 70.5632 36.437ZM80.9007 40.9969C80.7318 40.9969 80.5883 40.9378 80.47 40.8196C80.3687 40.7183 80.318 40.5831 80.318 40.4143V23.5934C80.318 23.4245 80.3687 23.2894 80.47 23.1881C80.5883 23.0699 80.7318 23.0108 80.9007 23.0108H82.066C82.2349 23.0108 82.37 23.0699 82.4713 23.1881C82.5895 23.2894 82.6486 23.4245 82.6486 23.5934V24.708C83.5944 23.4076 84.9792 22.7574 86.8032 22.7574C88.5765 22.7574 89.9022 23.3147 90.7804 24.4294C91.6755 25.544 92.1568 26.9795 92.2244 28.7359C92.2413 28.9217 92.2497 29.2088 92.2497 29.5972C92.2497 29.9857 92.2413 30.2728 92.2244 30.4585C92.1568 32.1981 91.6755 33.6336 90.7804 34.7651C89.8853 35.8797 88.5596 36.437 86.8032 36.437C85.0468 36.437 83.6788 35.8037 82.6993 34.5371V40.4143C82.6993 40.5831 82.6486 40.7183 82.5473 40.8196C82.446 40.9378 82.3109 40.9969 82.142 40.9969H80.9007ZM86.2712 34.3851C87.4703 34.3851 88.34 34.0136 88.8805 33.2705C89.4378 32.5274 89.7418 31.5478 89.7924 30.3319C89.8093 30.163 89.8178 29.9181 89.8178 29.5972C89.8178 26.4053 88.6356 24.8094 86.2712 24.8094C85.1059 24.8094 84.2277 25.1978 83.6366 25.9747C83.0624 26.7346 82.75 27.6466 82.6993 28.7106L82.674 29.6732L82.6993 30.6612C82.7331 31.6576 83.054 32.5274 83.6619 33.2705C84.2699 34.0136 85.1397 34.3851 86.2712 34.3851ZM99.0567 36.437C98.2291 36.437 97.4607 36.2682 96.7514 35.9304C96.0421 35.5926 95.4763 35.1366 95.0541 34.5624C94.6488 33.9713 94.4461 33.3211 94.4461 32.6118C94.4461 31.4972 94.9021 30.5852 95.8141 29.8759C96.7429 29.1497 97.9927 28.6768 99.5633 28.4573L103.338 27.9253V27.1906C103.338 25.468 102.35 24.6067 100.374 24.6067C99.6309 24.6067 99.0229 24.7671 98.55 25.088C98.0771 25.392 97.7225 25.7551 97.486 26.1773C97.4354 26.3293 97.3678 26.4391 97.2834 26.5067C97.2158 26.5742 97.1145 26.608 96.9794 26.608H95.8901C95.7381 26.608 95.603 26.5573 95.4848 26.456C95.3834 26.3378 95.3328 26.2027 95.3328 26.0507C95.3497 25.6453 95.5354 25.1894 95.8901 24.6827C96.2616 24.1592 96.8274 23.7116 97.5874 23.3401C98.3473 22.9516 99.2847 22.7574 100.399 22.7574C102.291 22.7574 103.65 23.205 104.478 24.1001C105.305 24.9783 105.719 26.076 105.719 27.3933V35.6011C105.719 35.7699 105.66 35.9135 105.542 36.0317C105.44 36.1331 105.305 36.1837 105.136 36.1837H103.971C103.802 36.1837 103.659 36.1331 103.541 36.0317C103.439 35.9135 103.389 35.7699 103.389 35.6011V34.5118C103.017 35.0522 102.477 35.5082 101.767 35.8797C101.058 36.2513 100.154 36.437 99.0567 36.437ZM99.5886 34.5371C100.686 34.5371 101.581 34.1824 102.274 33.4731C102.983 32.7469 103.338 31.7083 103.338 30.3572V29.6479L100.399 30.0786C99.2002 30.2474 98.2967 30.5345 97.6887 30.9399C97.0807 31.3283 96.7767 31.8265 96.7767 32.4345C96.7767 33.11 97.0554 33.6336 97.6127 34.0051C98.17 34.3598 98.8287 34.5371 99.5886 34.5371ZM109.944 36.1837C109.775 36.1837 109.631 36.1331 109.513 36.0317C109.412 35.9135 109.361 35.7699 109.361 35.6011V23.6187C109.361 23.4499 109.412 23.3063 109.513 23.1881C109.631 23.0699 109.775 23.0108 109.944 23.0108H111.109C111.278 23.0108 111.421 23.0699 111.54 23.1881C111.658 23.3063 111.717 23.4499 111.717 23.6187V24.7334C112.409 23.585 113.591 23.0108 115.263 23.0108H116.251C116.42 23.0108 116.555 23.0699 116.657 23.1881C116.775 23.2894 116.834 23.4245 116.834 23.5934V24.632C116.834 24.8009 116.775 24.936 116.657 25.0374C116.555 25.1387 116.42 25.1894 116.251 25.1894H114.731C113.819 25.1894 113.102 25.4596 112.578 26C112.055 26.5235 111.793 27.2413 111.793 28.1533V35.6011C111.793 35.7699 111.734 35.9135 111.615 36.0317C111.497 36.1331 111.354 36.1837 111.185 36.1837H109.944ZM119.567 36.1837C119.398 36.1837 119.255 36.1331 119.136 36.0317C119.035 35.9135 118.984 35.7699 118.984 35.6011V23.6187C118.984 23.4499 119.035 23.3063 119.136 23.1881C119.255 23.0699 119.398 23.0108 119.567 23.0108H120.732C120.901 23.0108 121.045 23.0699 121.163 23.1881C121.281 23.3063 121.34 23.4499 121.34 23.6187V24.7334C122.033 23.585 123.215 23.0108 124.887 23.0108H125.875C126.044 23.0108 126.179 23.0699 126.28 23.1881C126.398 23.2894 126.457 23.4245 126.457 23.5934V24.632C126.457 24.8009 126.398 24.936 126.28 25.0374C126.179 25.1387 126.044 25.1894 125.875 25.1894H124.355C123.443 25.1894 122.725 25.4596 122.202 26C121.678 26.5235 121.416 27.2413 121.416 28.1533V35.6011C121.416 35.7699 121.357 35.9135 121.239 36.0317C121.121 36.1331 120.977 36.1837 120.808 36.1837H119.567ZM133.756 36.437C131.898 36.437 130.455 35.9135 129.424 34.8664C128.411 33.8193 127.871 32.426 127.803 30.6865L127.778 29.5972L127.803 28.5079C127.871 26.7853 128.419 25.4005 129.45 24.3534C130.48 23.2894 131.915 22.7574 133.756 22.7574C135.597 22.7574 137.033 23.2894 138.063 24.3534C139.093 25.4005 139.642 26.7853 139.709 28.5079C139.726 28.6937 139.735 29.0568 139.735 29.5972C139.735 30.1377 139.726 30.5008 139.709 30.6865C139.642 32.426 139.093 33.8193 138.063 34.8664C137.049 35.9135 135.614 36.437 133.756 36.437ZM133.756 34.4864C134.82 34.4864 135.656 34.1487 136.264 33.4731C136.889 32.7976 137.227 31.8265 137.277 30.5599C137.294 30.391 137.303 30.0701 137.303 29.5972C137.303 29.1244 137.294 28.8035 137.277 28.6346C137.227 27.368 136.889 26.3969 136.264 25.7213C135.656 25.0458 134.82 24.708 133.756 24.708C132.692 24.708 131.848 25.0458 131.223 25.7213C130.598 26.3969 130.269 27.368 130.235 28.6346L130.21 29.5972L130.235 30.5599C130.269 31.8265 130.598 32.7976 131.223 33.4731C131.848 34.1487 132.692 34.4864 133.756 34.4864ZM146.056 36.1837C145.837 36.1837 145.668 36.1331 145.55 36.0317C145.432 35.9304 145.33 35.7699 145.246 35.5504L141.649 23.7961L141.598 23.5427C141.598 23.3907 141.649 23.2641 141.75 23.1627C141.868 23.0614 141.995 23.0108 142.13 23.0108H143.244C143.413 23.0108 143.548 23.0614 143.65 23.1627C143.768 23.2472 143.844 23.3401 143.878 23.4414L146.69 32.9918L149.704 23.5427C149.738 23.4076 149.814 23.2894 149.932 23.1881C150.05 23.0699 150.211 23.0108 150.414 23.0108H151.275C151.478 23.0108 151.638 23.0699 151.756 23.1881C151.874 23.2894 151.95 23.4076 151.984 23.5427L154.999 32.9918L157.811 23.4414C157.828 23.357 157.887 23.2641 157.988 23.1627C158.106 23.0614 158.25 23.0108 158.419 23.0108H159.559C159.694 23.0108 159.812 23.0614 159.913 23.1627C160.015 23.2641 160.065 23.3907 160.065 23.5427L160.015 23.7961L156.443 35.5504C156.358 35.7699 156.257 35.9304 156.139 36.0317C156.021 36.1331 155.843 36.1837 155.607 36.1837H154.619C154.163 36.1837 153.884 35.9726 153.783 35.5504L150.844 26.4813L147.906 35.5504C147.771 35.9726 147.483 36.1837 147.044 36.1837H146.056Z" fill="#FC5654"/>
</svg>
